<?xml version="1.0" encoding="UTF-8" standalone="no"?>
<svg
   xmlns:dc="http://purl.org/dc/elements/1.1/"
   xmlns:cc="http://creativecommons.org/ns#"
   xmlns:rdf="http://www.w3.org/1999/02/22-rdf-syntax-ns#"
   xmlns:svg="http://www.w3.org/2000/svg"
   xmlns="http://www.w3.org/2000/svg"
   xmlns:sodipodi="http://sodipodi.sourceforge.net/DTD/sodipodi-0.dtd"
   xmlns:inkscape="http://www.inkscape.org/namespaces/inkscape"
   inkscape:version="1.0 (4035a4fb49, 2020-05-01)"
   id="svg48"
   version="1.1"
   sodipodi:docname="about.svg"
   viewBox="-60 -60 120 120"
   height="120mm"
   width="120mm">
  <defs
     id="defs50" />
  <sodipodi:namedview
     inkscape:document-rotation="0"
     id="namedview38"
     inkscape:snap-grids="true"
     inkscape:snap-bbox-edge-midpoints="true"
     inkscape:bbox-nodes="true"
     inkscape:bbox-paths="true"
     inkscape:window-maximized="1"
     inkscape:window-y="-8"
     inkscape:window-x="-8"
     inkscape:window-height="837"
     inkscape:window-width="1600"
     inkscape:snap-bbox-midpoints="true"
     inkscape:snap-bbox="true"
     inkscape:snap-global="true"
     inkscape:guide-bbox="true"
     showguides="true"
     units="mm"
     showgrid="false"
     inkscape:current-layer="Template"
     inkscape:document-units="mm"
     inkscape:cy="146.46707"
     inkscape:cx="226.77165"
     inkscape:zoom="1"
     inkscape:pageshadow="2"
     inkscape:pageopacity="0.0"
     borderopacity="1.0"
     bordercolor="#666666"
     pagecolor="#ffffff">
    <sodipodi:guide
       id="guide2827"
       position="226.771653543,226.771653543"
       orientation="1,0" />
    <sodipodi:guide
       id="guide2829"
       position="226.771653543,226.771653543"
       orientation="0,1" />
    <inkscape:grid
       spacingy="0.1mm"
       spacingx="0.1mm"
       dotted="false"
       units="mm"
       snapvisiblegridlinesonly="true"
       enabled="true"
       visible="true"
       empspacing="10"
       id="grid3072"
       type="xygrid" />
  </sodipodi:namedview>
  <metadata
     id="metadata2822">
    <rdf:RDF>
      <cc:Work
         rdf:about="">
        <dc:format>image/svg+xml</dc:format>
        <dc:type
           rdf:resource="http://purl.org/dc/dcmitype/StillImage" />
        <dc:title></dc:title>
      </cc:Work>
    </rdf:RDF>
  </metadata>
  <g
     style="fill:none;stroke:black;stroke-width:0.05"
     id="Template"
     inkscape:groupmode="layer"
     inkscape:label="Layer 1">
    <path
       id="path122"
       d="m -29.966953,14.947622 c -3.31842,-0.488981 -6.1073,-1.458846 -8.661,-3.011964 -4.65441,-2.830728 -7.56189,-6.904246 -8.73992,-12.24502317 -0.46742,-2.11917393 -0.31737,-5.91583453 0.32055,-8.11025253 2.44632,-8.4152193 11.00434,-14.2506893 20.28956,-13.8348593 5.18815,0.232347 9.45386,1.915455 13.241701,5.224744 3.211164,2.805468 5.5469827,7.1512193 5.9419617,11.0549223 0.07203,0.71187 0.163948,1.294309 0.204268,1.294309 0.04032,0 0.525623,-0.300947 1.078445,-0.668769 2.60314,-1.732014 5.266168,-2.239211 7.555478,-1.439007 0.665257,0.232535 1.792206,0.792215 2.504326,1.243737 l 1.294764,0.820945 0.366327,-1.943886 c 0.741646,-3.9355163 2.418007,-7.0141513 5.3698313,-9.8617003 2.764368,-2.666715 5.921135,-4.360962 9.799342,-5.259334 2.624848,-0.608036 6.87229,-0.601879 9.477331,0.01375 7.257976,1.71519 12.797484,6.810144 14.730702,13.5485403 0.750245,2.615042 0.799015,6.2602508 0.117492,8.78183613 C 42.95378,7.846046 37.467546,12.842289 29.454878,14.643333 27.415887,15.101647 23.165408,15.088906 20.966044,14.617883 15.965183,13.546895 11.535981,10.772806 8.6466817,6.902046 6.7495867,4.360527 5.4825027,1.0684705 5.2011287,-2.0499756 l -0.134631,-1.4920991 -1.056671,-0.787362 c -1.740133,-1.296632 -3.44048503,-1.941449 -5.11951,-1.941449 -1.224873,0 -1.641322,0.09837 -2.927025,0.691412 -0.824435,0.380278 -1.886459,1.022971 -2.360055,1.428205 -0.721609,0.617451 -0.881449,0.8904924 -0.986825,1.6857181 -0.499189,3.7671463 -1.480264,6.4856796 -3.2328147,8.9580446 -3.701949,5.22243 -9.55262,8.273959 -16.24488,8.472832 -1.3665,0.04061 -2.76405,0.03265 -3.10567,-0.0177 z m 6.24956,-1.114736 c 7.287,-1.435976 12.840387,-6.299157 14.8055807,-12.96546497 0.402015,-1.3637113 0.476675,-2.08270123 0.476549,-4.58917473 -1.28e-4,-2.519597 -0.07216,-3.205677 -0.473095,-4.506115 -1.4729367,-4.7774593 -5.0987727,-8.9575553 -9.6764847,-11.1556663 -3.08219,-1.479994 -5.54959,-2.025303 -9.10462,-2.01217 -5.29211,0.01955 -9.55815,1.677442 -13.37577,5.198171 -2.09591,1.932918 -3.2925,3.57146 -4.32637,5.924302 -1.92428,4.3792073 -1.80492,9.69511263 0.3137,13.970735 2.49995,5.045199 7.68025,8.949339 13.42276,10.116079 1.74716,0.35498 6.17963,0.365761 7.93775,0.0193 z M 30.48266,13.560013 C 37.612276,11.561305 42.776612,6.354218 44.168571,-0.23919247 44.517466,-1.8918263 44.55678,-5.0921627 44.248021,-6.7065927 42.918786,-13.656836 37.105152,-19.349795 29.660491,-20.991327 c -3.642261,-0.80311 -8.167086,-0.468216 -11.715423,0.86709 -5.616465,2.113582 -9.9894943,6.944365 -11.5090143,12.7137373 -0.456552,1.733455 -0.454171,5.805059 0.0044,7.56924123 1.21027,4.65578647 4.2526953,8.68968747 8.4508413,11.20482947 1.86227,1.115703 3.370651,1.72617 5.660634,2.290957 1.683195,0.415132 2.183773,0.452329 5.176118,0.384636 2.603335,-0.05889 3.621475,-0.161497 4.754587,-0.479151 z"
       style="fill:#000000;stroke-width:0.00996252" />
  </g>
</svg>
